<svg width="32" height="32" viewBox="0 0 32 32" fill="none" xmlns="http://www.w3.org/2000/svg">
<g id="pin 1" clip-path="url(#clip0_86_1397)">
<g id="Pin">
<path id="Vector" d="M16 0.5C19.0487 0.50422 21.9713 1.71717 24.1271 3.87293C26.283 6.02885 27.496 8.95174 27.5 12.0007C27.4999 14.052 26.8324 16.2653 25.7938 18.4597C24.757 20.6502 23.3648 22.7918 21.9497 24.6913C19.1227 28.4857 16.2351 31.2728 16 31.4981C15.7649 31.2728 12.8773 28.4857 10.0503 24.6913C8.6352 22.7918 7.24302 20.6502 6.20623 18.4597C5.16753 16.2651 4.50007 14.0518 4.5 12.0003C4.50413 8.95153 5.71709 6.02877 7.87293 3.87293C10.0287 1.71717 12.9513 0.50422 16 0.5ZM16 18H16.0003C17.5912 17.999 19.1167 17.3666 20.2417 16.2417C21.3666 15.1167 21.999 13.5912 22 12.0003V12C22 10.8133 21.6481 9.65327 20.9888 8.66658C20.3295 7.67988 19.3925 6.91085 18.2961 6.45672C17.1997 6.0026 15.9933 5.88378 14.8295 6.11529C13.6656 6.3468 12.5965 6.91824 11.7574 7.75736C10.9182 8.59648 10.3468 9.66557 10.1153 10.8295C9.88378 11.9933 10.0026 13.1997 10.4567 14.2961C10.9108 15.3925 11.6799 16.3295 12.6666 16.9888C13.6533 17.6481 14.8133 18 16 18Z" fill="#78C081" stroke="#577A5B"/>
</g>
</g>
<defs>
<clipPath id="clip0_86_1397">
<rect width="32" height="32" fill="white"/>
</clipPath>
</defs>
</svg>
